HIERARCHY
ROOT Hips
{
	OFFSET -3.958830 18.904000 13.208200
	CHANNELS 6 Xposition Yposition Zposition Zrotation Yrotation Xrotation 
	JOINT LHipJoint
	{
		OFFSET 0.000000 0.000000 0.000000
		CHANNELS 3 Zrotation Yrotation Xrotation
		JOINT LeftUpLeg
		{
			OFFSET 1.800000 -1.400000 0.085000
			CHANNELS 3 Zrotation Yrotation Xrotation
			JOINT LeftLeg
			{
				OFFSET 2.215000 -6.000000 0.000000
				CHANNELS 3 Zrotation Yrotation Xrotation
				JOINT LeftFoot
				{
					OFFSET 2.500000 -6.900000 0.000000
					CHANNELS 3 Zrotation Yrotation Xrotation
					JOINT LeftToeBase
					{
						OFFSET 0.200000 -0.500000 1.950000
						CHANNELS 3 Zrotation Yrotation Xrotation
						End Site
						{
							OFFSET 0.000000 0.000000 0.000000
						}
					}
				}
			}
		}
	}
	JOINT RHipJoint
	{
		OFFSET 0.000000 0.000000 0.000000
		CHANNELS 3 Zrotation Yrotation Xrotation
		JOINT RightUpLeg
		{
			OFFSET -1.800000 -1.400000 0.085000
			CHANNELS 3 Zrotation Yrotation Xrotation
			JOINT RightLeg
			{
				OFFSET -2.215000 -6.000000 0.000000
				CHANNELS 3 Zrotation Yrotation Xrotation
				JOINT RightFoot
				{
					OFFSET -2.500000 -6.900000 0.000000
					CHANNELS 3 Zrotation Yrotation Xrotation
					JOINT RightToeBase
					{
						OFFSET -0.200000 -0.500000 1.950000
						CHANNELS 3 Zrotation Yrotation Xrotation
						End Site
						{
							OFFSET 0.000000 0.000000 0.000000
						}
					}
				}
			}
		}
	}
	JOINT LowerBack
	{
		OFFSET 0.000000 0.000000 0.000000
		CHANNELS 3 Zrotation Yrotation Xrotation
		JOINT Spine
		{
			OFFSET -0.087000 1.940000 -0.288900
			CHANNELS 3 Zrotation Yrotation Xrotation
			JOINT Spine1
			{
				OFFSET 0.000000 1.950000 0.060000
				CHANNELS 3 Zrotation Yrotation Xrotation
				JOINT Neck
				{
					OFFSET 0.000000 0.000000 0.000000
					CHANNELS 3 Zrotation Yrotation Xrotation
					JOINT Neck1
					{
						OFFSET 0.000000 1.600000 0.340000
						CHANNELS 3 Zrotation Yrotation Xrotation
						JOINT Head
						{
							OFFSET 0.000000 1.667000 -0.240000
							CHANNELS 3 Zrotation Yrotation Xrotation
							End Site
							{
								OFFSET 0.000000 0.000000 0.000000
							}
						}
					}
				}
				JOINT LeftShoulder
				{
					OFFSET 0.000000 0.000000 0.000000
					CHANNELS 3 Zrotation Yrotation Xrotation
					JOINT LeftArm
					{
						OFFSET 2.700000 1.550000 -0.730000
						CHANNELS 3 Zrotation Yrotation Xrotation
						JOINT LeftForeArm
						{
							OFFSET 5.450000 0.000000 0.000000
							CHANNELS 3 Zrotation Yrotation Xrotation
							JOINT LeftHand
							{
								OFFSET 3.450000 0.000000 0.000000
								CHANNELS 3 Zrotation Yrotation Xrotation
								JOINT LeftHandIndex1
								{
									OFFSET 0.750000 0.000000 0.000000
									CHANNELS 3 Zrotation Yrotation Xrotation
									End Site
									{
										OFFSET 0.000000 0.000000 0.000000
									}
								}
							}
						}
					}
				}
				JOINT RightShoulder
				{
					OFFSET 0.000000 0.000000 0.000000
					CHANNELS 3 Zrotation Yrotation Xrotation
					JOINT RightArm
					{
						OFFSET -2.700000 1.550000 -0.730000
						CHANNELS 3 Zrotation Yrotation Xrotation
						JOINT RightForeArm
						{
							OFFSET -5.450000 0.000000 0.000000
							CHANNELS 3 Zrotation Yrotation Xrotation
							JOINT RightHand
							{
								OFFSET -3.450000 0.000000 0.000000
								CHANNELS 3 Zrotation Yrotation Xrotation
								JOINT RightHandIndex1
								{
									OFFSET -0.750000 0.000000 0.000000
									CHANNELS 3 Zrotation Yrotation Xrotation
									End Site
									{
										OFFSET 0.000000 0.000000 0.000000
									}
								}
							}
						}
					}
				}
			}
		}
	}
}
MOTION
Frames: 12
Frame Time: 0.016667
-0.050940 17.248460 -1.071510 -4.314876 -5.550722 3.723780 -15.020849 13.227457 3.025856 5.300535 -1.859798 -15.782986 -11.843528 8.554792 21.002611 -0.512233 6.066405 2.809545 -0.091530 -0.493510 -0.286080 18.347396 -10.992782 2.836158 -1.391768 2.921124 -15.666238 9.393841 -7.748905 23.570750 -0.465374 -4.659472 2.749239 -0.156200 1.130500 0.805120 -3.805609 -1.293459 -7.343448 11.156892 0.623691 10.028185 -3.919744 1.560459 5.412193 3.247887 -2.278590 -9.906413 -4.403498 7.097623 29.336518 -4.936660 6.111890 -6.749860 -17.675200 -10.140921 4.116852 -46.530741 -6.695734 -2.293554 -27.371513 -26.428107 2.891341 -4.331566 2.856503 0.703480 0.649880 -0.036940 0.443720 11.373281 12.828823 6.442244 51.611064 9.754801 -4.985766 32.650323 31.590970 5.569803 1.891710 -1.420975 -0.459970 0.437270 0.383940 0.060480 
-0.050580 17.241020 -1.073600 -4.288803 -5.526871 3.735398 -15.024004 13.211937 3.039899 5.428444 -1.917406 -16.030715 -12.061184 8.718044 21.384334 -0.499034 6.145451 2.778645 -0.088500 -0.488580 -0.286890 18.345745 -10.976096 2.836150 -1.567198 3.017378 -15.903018 9.634251 -7.883604 23.942486 -0.474164 -4.716752 2.726346 -0.152330 1.132650 0.808120 -3.800417 -1.298915 -7.353107 11.114537 0.605236 10.133348 -3.938151 1.559339 5.343104 3.240756 -2.283126 -9.864979 -4.390101 7.102068 29.120861 -4.955760 6.111880 -6.794140 -17.547376 -9.968978 4.051845 -46.190275 -6.629999 -2.281906 -27.815409 -26.526996 3.022939 -4.333969 2.864899 0.700220 0.652840 -0.037230 0.446670 11.257217 12.658513 6.391496 51.320147 9.698331 -4.960316 33.163978 31.750540 5.736844 1.889255 -1.430857 -0.458450 0.436550 0.382390 0.062440 
-0.050440 17.226370 -1.077080 -4.224728 -5.477078 3.776530 -15.032221 13.176335 3.070197 5.693397 -2.028628 -16.509797 -12.543205 9.048322 22.066230 -0.466207 6.299292 2.717159 -0.079300 -0.473860 -0.286540 18.341928 -10.939246 2.835537 -1.916269 3.204252 -16.368978 10.104129 -8.147671 24.653621 -0.492268 -4.831720 2.679567 -0.143730 1.133490 0.816370 -3.786732 -1.309431 -7.371802 10.981435 0.584136 10.297478 -3.935111 1.557328 5.196077 3.216028 -2.274570 -9.763421 -4.332414 7.102731 28.685577 -4.987120 6.121580 -6.836050 -17.372545 -9.612824 3.914976 -45.449178 -6.490251 -2.243222 -28.721580 -26.712322 3.303432 -4.337829 2.888095 0.688870 0.658670 -0.036490 0.452400 11.130367 12.292112 6.273745 50.663846 9.554705 -4.889454 34.161462 32.032488 6.067487 1.887180 -1.454634 -0.449600 0.429340 0.375970 0.067940 
-0.049870 17.204230 -1.081960 -4.169447 -5.376224 3.836405 -15.044968 13.121965 3.115003 6.115590 -2.178781 -17.149351 -13.245669 9.516714 22.935744 -0.426338 6.522179 2.629821 -0.067680 -0.458150 -0.281900 18.337112 -10.880306 2.837536 -2.375838 3.453644 -16.963914 10.790690 -8.530269 25.564965 -0.518370 -4.994073 2.615082 -0.132520 1.134910 0.823810 -3.767337 -1.329119 -7.401935 10.830276 0.540667 10.518605 -3.900261 1.538609 5.024263 3.190570 -2.264825 -9.637693 -4.262124 7.099021 28.126262 -5.076890 6.144870 -6.939490 -17.073718 -9.137090 3.739732 -44.501486 -6.304487 -2.196925 -29.883550 -27.013493 3.678790 -4.343086 2.912794 0.678660 0.665810 -0.037540 0.457340 10.883064 11.801220 6.120509 49.727981 9.372036 -4.784566 35.517920 32.416690 6.533979 1.881617 -1.482804 -0.443470 0.423990 0.369220 0.070820 
-0.049430 17.177370 -1.087310 -4.095016 -5.216500 3.895947 -15.062407 13.053463 3.171970 6.619329 -2.353642 -17.868576 -14.082392 10.076771 23.893688 -0.382645 6.792748 2.525244 -0.060880 -0.447360 -0.280230 18.330556 -10.802084 2.843043 -2.961432 3.728977 -17.611403 11.693012 -9.016648 26.524561 -0.549224 -5.193086 2.537057 -0.121260 1.139230 0.828080 -3.740665 -1.361358 -7.443612 10.617607 0.487841 10.776562 -3.842844 1.511930 4.822068 3.158489 -2.245851 -9.494540 -4.179418 7.094003 27.560456 -5.158880 6.154930 -7.034760 -16.808187 -8.607900 3.541087 -43.268187 -6.033812 -2.148578 -31.158085 -27.394740 4.120924 -4.351180 2.934318 0.669480 0.674320 -0.042060 0.459380 10.684595 11.245331 5.952846 48.468699 9.099101 -4.672395 37.080395 32.897257 7.111901 1.873330 -1.508818 -0.442500 0.422740 0.367420 0.071960 
-0.048490 17.146070 -1.093130 -4.008648 -5.021299 3.989927 -15.081425 12.963498 3.240994 7.189626 -2.550324 -18.667633 -15.061745 10.722796 24.887155 -0.331165 7.105403 2.408391 -0.056810 -0.438800 -0.281750 18.326727 -10.707133 2.851532 -3.657057 4.019543 -18.317698 12.757330 -9.586260 27.489667 -0.584615 -5.422958 2.448300 -0.109410 1.149520 0.830640 -3.717636 -1.390837 -7.491719 10.414057 0.431631 10.999799 -3.794750 1.478395 4.623875 3.103573 -2.241311 -9.336935 -4.119308 7.110943 26.947794 -5.174720 6.133870 -7.049540 -16.514584 -8.043302 3.331218 -41.865041 -5.737491 -2.071559 -32.482853 -27.797276 4.604388 -4.362807 2.955328 0.657630 0.685630 -0.050560 0.461980 10.502689 10.651413 5.771945 46.988483 8.779371 -4.529071 38.718064 33.380385 7.742633 1.863421 -1.535026 -0.444270 0.425830 0.368250 0.074490 
-0.047870 17.112890 -1.099300 -3.934861 -4.825751 4.082373 -15.099995 12.859602 3.318260 7.841486 -2.741481 -19.460587 -16.136301 11.421179 25.828712 -0.276921 7.442128 2.284722 -0.050670 -0.430690 -0.278940 18.326408 -10.601678 2.863961 -4.372461 4.318228 -19.044063 13.834954 -10.191467 28.469029 -0.624360 -5.668910 2.354825 -0.096200 1.159030 0.832460 -3.700947 -1.416479 -7.546875 10.269718 0.364182 11.218383 -3.797757 1.439700 4.437727 3.050586 -2.254342 -9.169587 -4.096046 7.138363 26.392434 -5.212230 6.115740 -7.062330 -16.257264 -7.484744 3.112016 -40.283630 -5.430126 -1.965143 -33.738384 -28.135450 5.077681 -4.374189 2.972925 0.648330 0.696740 -0.059080 0.464310 10.347120 10.065934 5.586879 45.393589 8.461617 -4.359504 40.308244 33.815137 8.376993 1.852254 -1.559996 -0.448390 0.430340 0.367770 0.074500 
-0.047120 17.076800 -1.105750 -3.872285 -4.643928 4.217752 -15.120301 12.739783 3.402192 8.531550 -2.928591 -20.301543 -17.259867 12.160545 26.733260 -0.219193 7.795631 2.157193 -0.053570 -0.429600 -0.284580 18.328600 -10.483506 2.882040 -5.090689 4.626576 -19.815697 14.951795 -10.830400 29.422416 -0.662984 -5.929291 2.257331 -0.085270 1.175780 0.831700 -3.685986 -1.437181 -7.605107 10.123055 0.318229 11.361586 -3.762470 1.409353 4.278769 2.978320 -2.265107 -9.001667 -4.069090 7.179999 25.837394 -5.234300 6.091980 -6.910770 -16.005653 -6.964230 2.904919 -38.688007 -5.140962 -1.829082 -34.835971 -28.359510 5.494125 -4.393682 2.987032 0.633420 0.712940 -0.074600 0.463410 10.239284 9.512897 5.403857 43.701077 8.132245 -4.174523 41.652497 34.121086 8.925169 1.840044 -1.580258 -0.455380 0.437970 0.374880 0.075930 
-0.047340 17.039750 -1.111850 -3.820773 -4.418529 4.348774 -15.141939 12.616372 3.488344 9.236349 -3.110214 -21.134526 -18.329593 12.897216 27.610065 -0.163122 8.152720 2.034024 -0.060890 -0.437190 -0.291250 18.331241 -10.359681 2.904122 -5.796992 4.913383 -20.545029 16.088012 -11.495224 30.302953 -0.702656 -6.196708 2.162743 -0.077840 1.198050 0.830100 -3.670090 -1.461887 -7.667183 9.977734 0.267314 11.467028 -3.719795 1.368405 4.161114 2.913993 -2.256473 -8.864559 -4.021438 7.209072 25.382395 -5.312120 6.085930 -6.624980 -15.795623 -6.551886 2.736441 -37.088121 -4.844498 -1.703523 -35.675458 -28.522043 5.829699 -4.415977 2.993001 0.621170 0.732580 -0.093230 0.463730 10.159761 9.048120 5.258894 42.073899 7.778061 -4.041048 42.617427 34.391046 9.358311 1.825343 -1.594240 -0.467980 0.449290 0.383580 0.075670 
-0.048010 17.004140 -1.118730 -3.769623 -4.186582 4.424768 -15.163060 12.499346 3.574571 9.900473 -3.279950 -21.912440 -19.298505 13.611048 28.475894 -0.107087 8.498022 1.916540 -0.069640 -0.448430 -0.297880 18.333460 -10.239022 2.928844 -6.473836 5.172882 -21.199248 17.153121 -12.152670 31.141341 -0.745196 -6.459381 2.070396 -0.074180 1.218220 0.829570 -3.653396 -1.491927 -7.735115 9.842920 0.217157 11.631587 -3.692537 1.338554 4.063830 2.858054 -2.253817 -8.770841 -4.001779 7.217652 25.084326 -5.386870 6.061010 -6.354310 -15.637791 -6.265222 2.605838 -35.532387 -4.571742 -1.600182 -36.227483 -28.613532 6.065242 -4.435391 2.994981 0.613440 0.749150 -0.109130 0.463310 10.114326 8.721718 5.168651 40.557957 7.415255 -3.983520 43.105752 34.625561 9.640664 1.812075 -1.600880 -0.480230 0.459500 0.393190 0.074740 
-0.047940 16.970330 -1.125780 -3.737582 -3.943469 4.431670 -15.180800 12.390805 3.659693 10.542436 -3.429832 -22.597480 -20.204050 14.299272 29.280654 -0.050800 8.825863 1.806254 -0.083910 -0.467010 -0.305350 18.336770 -10.123016 2.956105 -7.147113 5.392021 -21.738762 18.229926 -12.801898 31.830677 -0.786793 -6.705938 1.985417 -0.076780 1.234870 0.825460 -3.642377 -1.528297 -7.810104 9.805049 0.141624 11.869401 -3.725140 1.307755 4.000335 2.810637 -2.294945 -8.746969 -4.080065 7.223597 24.971787 -5.472940 6.037850 -6.089970 -15.538154 -6.136725 2.543466 -34.031128 -4.251469 -1.565911 -36.528479 -28.747133 6.233626 -4.450182 2.989861 0.610300 0.760830 -0.123470 0.459150 10.103145 8.583828 5.156029 39.181418 7.024178 -4.026745 43.210090 34.864266 9.801915 1.802555 -1.596793 -0.493970 0.470130 0.405360 0.072080 
-0.047990 16.936900 -1.131400 -3.747983 -3.676397 4.434686 -15.196902 12.287414 3.741120 11.173137 -3.569546 -23.259079 -20.991117 14.952538 30.074332 0.006763 9.136375 1.705978 -0.098220 -0.488240 -0.310200 18.341260 -10.010030 2.985244 -7.775161 5.582345 -22.209895 19.301582 -13.445949 32.429759 -0.828688 -6.943015 1.906021 -0.082640 1.251710 0.820570 -3.634955 -1.566808 -7.884368 9.832134 0.045883 12.101223 -3.741622 1.261507 3.940480 2.755387 -2.371963 -8.752637 -4.223838 7.227801 24.880508 -5.545190 6.000870 -5.751930 -15.443731 -6.041981 2.511508 -32.702689 -3.910895 -1.560701 -36.681793 -28.919816 6.368039 -4.462801 2.984288 0.606550 0.771250 -0.138330 0.455550 10.112165 8.506481 5.175509 37.864974 6.589677 -4.110965 43.136584 35.147965 9.922313 1.795589 -1.591934 -0.506900 0.480470 0.415580 0.069700 
